<?xml version="1.0" encoding="UTF-8"?>
<svg version="1.1" xmlns="http://www.w3.org/2000/svg" width="1024" height="1024">
<path d="M0 0 C337.92 0 675.84 0 1024 0 C1024 337.92 1024 675.84 1024 1024 C686.08 1024 348.16 1024 0 1024 C0 686.08 0 348.16 0 0 Z " fill="#11497E" transform="translate(0,0)"/>
<path d="M0 0 C54.54990593 -0.11438064 109.09979977 -0.20251597 163.64980198 -0.25532665 C170.08619631 -0.26158037 176.5225904 -0.26805196 182.95898438 -0.2746582 C184.88108419 -0.27662553 184.88108419 -0.27662553 186.8420143 -0.2786326 C207.60524729 -0.30040428 228.36841125 -0.33983553 249.13160326 -0.38576398 C270.42784162 -0.43247954 291.72404376 -0.46028503 313.02033126 -0.47044247 C326.16712101 -0.47731179 339.31371563 -0.49902767 352.46044533 -0.53958233 C361.46892941 -0.56596018 370.47731225 -0.57401223 379.48583217 -0.56750689 C384.68759388 -0.56429629 389.88901403 -0.56930567 395.09071541 -0.59602737 C399.85049919 -0.62030097 404.60971067 -0.62162595 409.36952041 -0.60449447 C411.09371876 -0.60237616 412.81795236 -0.6087687 414.54208101 -0.62441591 C416.88271104 -0.64442732 419.22126413 -0.63370573 421.56186104 -0.61523914 C423.51324382 -0.61808705 423.51324382 -0.61808705 425.50404847 -0.62099248 C430.10259256 0.1958556 431.71925184 1.73323151 435 5 C436.15880684 7.31761369 436.12924183 8.64728544 436.13701439 11.22738266 C436.1446262 12.56542942 436.1446262 12.56542942 436.15239179 13.93050742 C436.15288955 14.91667178 436.15338731 15.90283615 436.15390015 16.91888428 C436.1582824 17.96174914 436.16266465 19.004614 436.1671797 20.07908082 C436.18060481 23.59666762 436.18675487 27.11422936 436.19287109 30.63183594 C436.20076909 33.14453241 436.20903785 35.65722775 436.21765137 38.16992188 C436.24163807 45.72720379 436.25680406 53.28448449 436.26971143 60.84179246 C436.27342263 62.97582408 436.27739592 65.10985503 436.2814641 67.24388599 C436.30669997 80.4919692 436.32875614 93.74005342 436.34119225 106.98815536 C436.34412201 110.0575333 436.34708366 113.12691121 436.35009766 116.19628906 C436.35084371 116.95918158 436.35158976 117.72207409 436.35235842 118.50808457 C436.36501348 130.86797296 436.39823788 143.22771754 436.43989949 155.58753869 C436.4823092 168.27315116 436.50588616 180.95868999 436.51111281 193.64437318 C436.51452805 200.76854491 436.52629622 207.89249192 436.55921555 215.01659393 C436.59012869 221.71757876 436.59563838 228.41810318 436.58383179 235.11917114 C436.58361034 237.580655 436.59197363 240.04215661 436.60948563 242.50357819 C436.63207208 245.86058889 436.62392975 249.21616449 436.60800171 252.57318115 C436.6218838 253.55042263 436.63576588 254.5276641 436.65006864 255.53451896 C436.59787716 259.98978733 436.44555514 263.04255133 433.58699989 266.58917618 C429.60723698 270.29791512 427.55649332 270.12669566 422.17734051 270.13422108 C421.46403711 270.13657331 420.75073371 270.13892554 420.01581505 270.14134905 C417.60132325 270.1480598 415.18688501 270.1475802 412.77238464 270.14717102 C411.0335554 270.15046835 409.29472693 270.15419364 407.55589944 270.1583125 C402.75860591 270.16835541 397.96132489 270.17205296 393.16402233 270.17470181 C387.99758232 270.17859805 382.83115229 270.18817679 377.66471863 270.19691467 C365.17895585 270.21669758 352.69319224 270.22674726 340.2074177 270.23564246 C334.33298834 270.24002206 328.45855988 270.24538969 322.58413124 270.25063133 C303.06572119 270.26764485 283.54731171 270.2821404 264.02889538 270.28938007 C258.96123949 270.29129008 253.89358361 270.2932104 248.82592773 270.29516602 C247.56633086 270.29564976 246.30673398 270.2961335 245.0089675 270.2966319 C224.59115391 270.30493731 204.17339881 270.33028232 183.75561079 270.36274669 C162.8107423 270.39577866 141.86590357 270.4138253 120.92100888 270.41702431 C109.15403545 270.41919291 97.38714732 270.42799267 85.6201992 270.45348549 C75.60171391 270.47513972 65.58333464 270.48326897 55.5648286 270.47351871 C50.4503144 270.46895875 45.33601921 270.47095828 40.22153473 270.49028015 C35.54274131 270.50780394 30.86432839 270.50700248 26.18553153 270.49138286 C24.48968127 270.4889903 22.79380539 270.49341492 21.09799447 270.50521151 C18.79825655 270.52022284 16.49988574 270.51073431 14.20018291 270.49498463 C12.92122983 270.49596144 11.64227674 270.49693824 10.3245675 270.49794465 C6.37275492 269.90605294 4.77545404 268.83169702 2 266 C0.08240893 263.09726177 -0.24938944 260.86135647 -0.24609566 257.41605759 C-0.25007775 256.49544375 -0.25405985 255.57482992 -0.25816262 254.62631869 C-0.25233693 253.61854161 -0.24651125 252.61076452 -0.24050903 251.57244873 C-0.24221788 250.49914031 -0.24392673 249.42583189 -0.24568737 248.31999898 C-0.24899028 244.71163784 -0.23796522 241.10346129 -0.22705078 237.49511719 C-0.22648684 234.91327926 -0.22680289 232.33144101 -0.22793579 229.74960327 C-0.22898478 224.18496529 -0.22270674 218.62037418 -0.21146011 213.05574799 C-0.19520995 205.01022775 -0.1899976 196.96473019 -0.18748413 188.91919532 C-0.18310627 175.86603924 -0.16979469 162.81290814 -0.15087891 149.75976562 C-0.13252247 137.07942836 -0.11836481 124.39909787 -0.10986328 111.71875 C-0.10933783 110.93720805 -0.10881239 110.15566611 -0.10827102 109.35044107 C-0.10566095 105.42969698 -0.10313353 101.50895284 -0.10064721 97.58820868 C-0.07991187 65.05878759 -0.04468385 32.52939714 0 0 Z " fill="#F7EEDD" transform="translate(464,582)"/>
<path d="M0 0 C1.48979274 1.21626573 2.96866029 2.44601113 4.4375 3.6875 C5.25089844 4.35523438 6.06429687 5.02296875 6.90234375 5.7109375 C22.71518314 19.20910856 35.03699179 39.93791634 36.99438477 60.93432617 C37.12128441 62.27306038 37.12128441 62.27306038 37.25074768 63.63883972 C37.31237595 64.31489761 37.37400421 64.99095551 37.4375 65.6875 C36.48029556 65.68963753 36.48029556 65.68963753 35.50375366 65.69181824 C28.85216481 65.71152944 22.20149188 65.76583418 15.55029297 65.84008789 C13.06924006 65.86326167 10.58808886 65.87766211 8.10693359 65.88305664 C4.53681224 65.89235011 0.96823559 65.93335363 -2.6015625 65.98046875 C-4.26126572 65.97456978 -4.26126572 65.97456978 -5.95449829 65.96855164 C-12.57827831 66.03817478 -12.57827831 66.03817478 -18.24755859 69.10668945 C-21.87953087 73.15579079 -21.90120845 75.84660756 -21.84765625 81.140625 C-21.43254823 84.84816516 -20.0297478 86.94611356 -17.5625 89.6875 C-14.46750942 91.62024703 -12.04639882 91.95259061 -8.42675781 92.00634766 C-7.40600159 92.02621735 -6.38524536 92.04608704 -5.33355713 92.06655884 C-4.23863953 92.07811005 -3.14372192 92.08966125 -2.015625 92.1015625 C-0.8892865 92.12092865 0.237052 92.1402948 1.39752197 92.1602478 C4.99410434 92.22001521 8.59071876 92.26641819 12.1875 92.3125 C14.62631602 92.35068234 17.0651186 92.38973422 19.50390625 92.4296875 C25.48170077 92.52735058 31.45935244 92.6069434 37.4375 92.6875 C37.4375 101.2675 37.4375 109.8475 37.4375 118.6875 C33.82554687 118.71328125 30.21359375 118.7390625 26.4921875 118.765625 C22.98722599 118.8040566 19.48241103 118.84921347 15.97753906 118.89501953 C13.54499325 118.92321451 11.11235608 118.94443632 8.6796875 118.95849609 C5.17921218 118.97994508 1.67983369 119.02660843 -1.8203125 119.078125 C-2.90490753 119.07935364 -3.98950256 119.08058228 -5.10696411 119.08184814 C-11.21134766 119.19978804 -14.92695625 119.57958694 -19.5625 123.6875 C-22.50113531 127.89643875 -22.07475915 132.75700565 -21.5625 137.6875 C-19.8235575 141.9890946 -17.7571765 143.79780761 -13.5625 145.6875 C-9.68529136 146.16649677 -5.82119235 146.17633171 -1.91796875 146.19921875 C-0.7930452 146.21716995 0.33187836 146.23512115 1.4908905 146.25361633 C5.07722243 146.30771716 8.66342125 146.34161525 12.25 146.375 C14.68426331 146.40817317 17.11850906 146.44266282 19.55273438 146.47851562 C25.51434208 146.56591731 31.47534401 146.62599074 37.4375 146.6875 C37.4375 155.2675 37.4375 163.8475 37.4375 172.6875 C33.82554687 172.71328125 30.21359375 172.7390625 26.4921875 172.765625 C22.98722599 172.8040566 19.48241103 172.84921347 15.97753906 172.89501953 C13.54499325 172.92321451 11.11235608 172.94443632 8.6796875 172.95849609 C5.17921218 172.97994508 1.67983369 173.02660843 -1.8203125 173.078125 C-2.90490753 173.07935364 -3.98950256 173.08058228 -5.10696411 173.08184814 C-11.22269975 173.20000737 -14.91661145 173.5812998 -19.5625 177.6875 C-21.91375704 180.58738368 -22.5183484 182.34690197 -23 186.0625 C-22.49073659 190.2821111 -21.48016579 193.53579685 -18.5625 196.6875 C-12.94385082 200.39990443 -7.53997905 200.16013008 -1.0390625 200.19921875 C0.06225006 200.21716995 1.16356262 200.23512115 2.29824829 200.25361633 C5.80296035 200.30763758 9.30753683 200.34158964 12.8125 200.375 C15.19402925 200.4081802 17.57554062 200.44267051 19.95703125 200.47851562 C25.78373258 200.56335944 31.61045163 200.63174404 37.4375 200.6875 C37.53087148 211.8330587 37.60160147 222.97852179 37.64474869 234.12439442 C37.66547472 239.30190321 37.69351256 244.47914116 37.73925781 249.65649414 C37.7832576 254.66862777 37.80674918 259.68050367 37.81700897 264.69281578 C37.82430457 266.5890476 37.83854534 268.48526803 37.86042023 270.38138771 C38.15590501 297.09767708 31.98423525 320.96019564 14.4375 341.6875 C13.97988281 342.29078125 13.52226562 342.8940625 13.05078125 343.515625 C0.03102004 360.24973251 -22.41876615 370.07636031 -42.90527344 373.0246582 C-66.78948878 375.85621455 -91.99310334 370.22169999 -111.27392578 355.36914062 C-114.92452793 352.349305 -118.255256 349.07682158 -121.5625 345.6875 C-122.37332031 344.88570312 -123.18414062 344.08390625 -124.01953125 343.2578125 C-140.03667574 326.61307972 -147.77807176 303.41416647 -147.67602539 280.609375 C-147.67624443 279.30552101 -147.67624443 279.30552101 -147.6764679 277.97532654 C-147.67577651 275.12935813 -147.66802069 272.28345684 -147.66015625 269.4375 C-147.65828932 267.45353226 -147.65686671 265.46956407 -147.65586853 263.4855957 C-147.65206504 258.28410552 -147.64225342 253.08264362 -147.63116455 247.88116455 C-147.62090366 242.56531151 -147.61636091 237.24945386 -147.61132812 231.93359375 C-147.60062908 221.5182168 -147.58357889 211.10286076 -147.5625 200.6875 C-146.66833374 200.68203156 -146.66833374 200.68203156 -145.75610352 200.67645264 C-139.5259771 200.63449343 -133.29657818 200.56505428 -127.06689453 200.47998047 C-124.74502861 200.45183468 -122.42306801 200.43058851 -120.10107422 200.41650391 C-116.75439201 200.39498645 -113.40884051 200.34828876 -110.0625 200.296875 C-109.0319751 200.29564636 -108.0014502 200.29441772 -106.93969727 200.29315186 C-100.66861627 200.16702423 -95.78435755 199.3244758 -90.5625 195.6875 C-87.56118734 192.31102326 -87.02353603 189.19435922 -87.2109375 184.6796875 C-87.95228036 180.47874464 -90.31686324 177.75067818 -93.47924805 175.05151367 C-98.27938266 172.92796057 -103.01346207 173.2062344 -108.20703125 173.17578125 C-109.3319548 173.15783005 -110.45687836 173.13987885 -111.6158905 173.12138367 C-115.20222243 173.06728284 -118.78842125 173.03338475 -122.375 173 C-124.80926331 172.96682683 -127.24350906 172.93233718 -129.67773438 172.89648438 C-135.63934208 172.80908269 -141.60034401 172.74900926 -147.5625 172.6875 C-147.5625 164.1075 -147.5625 155.5275 -147.5625 146.6875 C-144.02273437 146.65011719 -140.48296875 146.61273438 -136.8359375 146.57421875 C-133.4004912 146.52798266 -129.96515295 146.47675643 -126.52978516 146.42504883 C-124.14573759 146.39183354 -121.76161203 146.36379108 -119.37744141 146.34106445 C-115.94660261 146.30745682 -112.51647637 146.25513593 -109.0859375 146.19921875 C-108.02321625 146.19282883 -106.960495 146.1864389 -105.86557007 146.17985535 C-100.37450013 146.07122772 -96.27901774 145.82719376 -91.5625 142.6875 C-87.92024854 138.66846391 -87.32106685 135.07245908 -87.41015625 129.6875 C-87.6162315 126.98210183 -88.18558912 125.0282485 -89.5625 122.6875 C-93.37149247 120.2300855 -97.1147322 119.55943673 -101.5847168 119.48217773 C-102.60554855 119.46223251 -103.62638031 119.44228729 -104.67814636 119.42173767 C-105.77822525 119.40502518 -106.87830414 119.38831268 -108.01171875 119.37109375 C-109.70334892 119.3399221 -109.70334892 119.3399221 -111.42915344 119.30812073 C-115.0360396 119.24267153 -118.64299929 119.18376156 -122.25 119.125 C-124.69336702 119.08181039 -127.13672656 119.03819596 -129.58007812 118.99414062 C-135.57414444 118.88619448 -141.56826558 118.78708608 -147.5625 118.6875 C-147.5625 110.1075 -147.5625 101.5275 -147.5625 92.6875 C-142.14457031 92.64882813 -142.14457031 92.64882813 -136.6171875 92.609375 C-133.11222599 92.5709434 -129.60741103 92.52578653 -126.10253906 92.47998047 C-123.66999325 92.45178549 -121.23735608 92.43056368 -118.8046875 92.41650391 C-115.30421218 92.39505492 -111.80483369 92.34839157 -108.3046875 92.296875 C-107.22009247 92.29564636 -106.13549744 92.29441772 -105.01803589 92.29315186 C-98.91789277 92.17529389 -95.17114997 91.82876998 -90.5625 87.6875 C-87.90421 83.61145534 -86.95733147 80.52884826 -87.5625 75.6875 C-88.82837164 72.10086368 -89.79877257 70.21425443 -92.94580078 68.04370117 C-98.07770777 66.11932266 -102.86458016 66.2078318 -108.3046875 66.17578125 C-109.42819611 66.15783005 -110.55170471 66.13987885 -111.70925903 66.12138367 C-115.28530159 66.06735386 -118.86121119 66.03340754 -122.4375 66 C-124.86720597 65.96682056 -127.29689441 65.93233033 -129.7265625 65.89648438 C-135.67175578 65.81163146 -141.61696642 65.74325044 -147.5625 65.6875 C-144.53255248 41.02034125 -133.68753424 19.08787183 -114.5625 2.6875 C-105.66851622 -4.22200396 -96.21001796 -9.56419885 -85.5625 -13.3125 C-84.40105469 -13.725 -83.23960937 -14.1375 -82.04296875 -14.5625 C-54.86209492 -22.75945462 -22.59269834 -17.13246652 0 0 Z " fill="#F7EFDD" transform="translate(301.5625,202.3125)"/>
<path d="M0 0 C3.53561629 2.16466303 5.56501082 4.03863932 7.0625 7.875 C7.64393297 12.31834576 7.59570495 16.73121758 7.56640625 21.20703125 C7.58081104 23.20256874 7.59523246 25.19810625 7.6105566 27.19363689 C7.63174263 30.69158349 7.62641382 34.18950373 7.625 37.6875 C7.27541326 67.07063296 7.27541326 67.07063296 14.1875 95.4375 C14.485354 96.21923584 14.78320801 97.00097168 15.09008789 97.80639648 C19.90703956 110.00119521 26.37944727 121.0331188 35.0625 130.875 C35.81015625 131.76574219 36.5578125 132.65648437 37.328125 133.57421875 C55.93390735 155.09090576 83.69778812 169.41127022 112.0625 171.875 C147.8384501 173.59269746 178.50107287 163.50598927 205.25 139.5 C225.76194818 120.52421802 238.91393504 93.78801305 241.0625 65.875 C241.21813141 61.33885842 241.246462 56.80413225 241.2734375 52.265625 C241.29431678 50.30241904 241.31521338 48.33921309 241.33713722 46.37601852 C241.39000357 41.57252165 241.43466836 36.7690328 241.46386719 31.96533203 C241.48077152 29.25520523 241.50545422 26.54536341 241.53872681 23.83538818 C241.56965092 21.29241424 241.58910446 18.74926889 241.59579468 16.20611572 C241.61236115 15.05431824 241.62892761 13.90252075 241.64599609 12.71582031 C241.65812637 11.20100067 241.65812637 11.20100067 241.67050171 9.65557861 C242.28184385 5.31911866 243.98359039 2.69837839 247.4375 0.0625 C252.88800283 -1.72300955 258.38146873 -1.85023803 264.0625 -1.125 C268.48286138 1.13773044 271.46892265 3.09426794 273.0625 7.875 C273.16582546 9.72714593 273.21102925 11.58276117 273.22363281 13.43774414 C273.23324036 14.58066422 273.2428479 15.72358429 273.25274658 16.90113831 C273.2591214 18.76185219 273.2591214 18.76185219 273.265625 20.66015625 C273.27132507 21.94498398 273.27702515 23.22981171 273.28289795 24.55357361 C273.29341302 27.28482455 273.29924884 30.01604612 273.30273438 32.74731445 C273.30708042 35.51405306 273.3208163 38.28047301 273.34375 41.04711914 C273.71398503 86.58728474 262.27492413 126.5341921 230.1171875 159.8515625 C207.19392444 182.89260726 177.15206198 197.8720234 145.0625 202.875 C143.4125 202.875 141.7625 202.875 140.0625 202.875 C140.0625 253.695 140.0625 304.515 140.0625 356.875 C158.8725 356.875 177.6825 356.875 197.0625 356.875 C214.30735979 361.18621495 227.5719011 368.09577218 237.53125 383.19921875 C240.22227339 387.90164482 242.24088412 392.78016809 244.0625 397.875 C244.31 398.55046875 244.5575 399.2259375 244.8125 399.921875 C246.75461546 406.23375023 246.83140189 413.36827113 246.0625 419.875 C244.20448826 422.46313953 243.15043007 422.84568998 240.0625 423.875 C237.01017973 423.97797733 233.98042347 424.02280298 230.92776489 424.02217102 C229.5081355 424.02768605 229.5081355 424.02768605 228.05982673 424.0333125 C224.87467724 424.04436409 221.68956035 424.04819565 218.50439453 424.05200195 C216.22637834 424.05826536 213.94836316 424.06491205 211.67034912 424.07191467 C205.47204517 424.08933282 199.27374894 424.09987812 193.07542658 424.1081202 C189.20572811 424.1132674 185.33603206 424.11934318 181.4663353 424.12563133 C170.75357104 424.1424999 160.04081051 424.15713598 149.32803535 424.16438007 C146.54860559 424.16628997 143.76917583 424.16821031 140.98974609 424.17016602 C139.95352424 424.17089163 139.95352424 424.17089163 138.89636861 424.1716319 C127.69986224 424.17993634 116.50346256 424.20528146 105.3070028 424.23774669 C93.81352055 424.27080177 82.3201086 424.28849442 70.82657707 424.29202431 C64.37261636 424.29437931 57.91882438 424.30339856 51.4649086 424.32848549 C45.39595415 424.35169518 39.3272804 424.35602802 33.25829315 424.34572411 C31.02860203 424.34522695 28.79889741 424.35160011 26.5692482 424.36528015 C23.52955962 424.38288961 20.49089044 424.37594668 17.45120239 424.36274719 C16.12206824 424.37920106 16.12206824 424.37920106 14.76608288 424.39598733 C10.72758307 424.35353244 8.56035807 424.16906266 5.01501274 422.07498455 C2.20019783 418.90340508 2.3512937 415.91144096 2.5 411.875 C2.51659668 411.11751465 2.53319336 410.3600293 2.55029297 409.57958984 C3.13042609 395.38286072 9.89045214 381.72032256 20.0625 371.875 C44.39387569 349.68566416 78.18832686 356.875 109.0625 356.875 C109.0625 306.055 109.0625 255.235 109.0625 202.875 C103.7825 202.215 98.5025 201.555 93.0625 200.875 C64.9954507 194.50975299 40.65244194 180.76364964 20.0625 160.875 C19.13695312 160.01261719 18.21140625 159.15023437 17.2578125 158.26171875 C-8.40451122 133.72621094 -23.40759597 98.53440227 -24.22802734 63.17114258 C-24.25420738 60.53666062 -24.27055967 57.903956 -24.2734375 55.26953125 C-24.27989081 53.8470599 -24.28662087 52.42458979 -24.29360962 51.00212097 C-24.30543224 48.05859287 -24.30930486 45.11518095 -24.30810547 42.17163086 C-24.30789994 38.40795188 -24.335506 34.64500825 -24.36964989 30.88150501 C-24.39188091 27.96036855 -24.39594465 25.0394127 -24.39488602 22.1182003 C-24.39723596 20.7295541 -24.40602525 19.34090247 -24.42155075 17.95234108 C-24.44118527 16.02016625 -24.43285667 14.08776873 -24.42333984 12.15551758 C-24.42618988 11.0601619 -24.42903992 9.96480621 -24.43197632 8.83625793 C-23.81978035 5.17001531 -22.49973046 3.51911047 -19.9375 0.875 C-14.02821957 -2.29000295 -6.26754834 -2.28772283 0 0 Z " fill="#F6EEDC" transform="translate(121.9375,428.125)"/>
<path d="M0 0 C9.33508572 1.26239593 17.14632576 9.83203096 24.125 15.75 C24.78870605 16.30461914 25.45241211 16.85923828 26.13623047 17.43066406 C27.06266357 18.23068848 27.06266357 18.23068848 28.0078125 19.046875 C28.56098145 19.51963867 29.11415039 19.99240234 29.68408203 20.47949219 C31.30307098 22.35019036 31.79713785 23.53346798 32 26 C31.1105957 27.77661133 31.1105957 27.77661133 29.67578125 29.58203125 C29.14710449 30.25983643 28.61842773 30.9376416 28.07373047 31.63598633 C27.49252441 32.35423584 26.91131836 33.07248535 26.3125 33.8125 C25.7261377 34.55717529 25.13977539 35.30185059 24.53564453 36.0690918 C22.70313461 38.38982875 20.85313112 40.69571007 19 43 C17.8548225 44.43698522 16.71026667 45.87446614 15.56640625 47.3125 C13.53934302 49.85689141 11.50403966 52.39425716 9.4609375 54.92578125 C8.64882813 55.94027344 7.83671875 56.95476563 7 58 C6.46177298 58.59921579 5.92354595 59.19843159 5.36900902 59.81580544 C3.5654153 62.69336105 3.62896869 64.63633395 3.63491821 68.02133179 C3.62694969 69.8718943 3.62694969 69.8718943 3.61882019 71.75984192 C3.62796806 73.12423867 3.63736042 74.48863379 3.64697266 75.85302734 C3.64614171 77.2921411 3.64392508 78.73125463 3.64042664 80.17036438 C3.63547794 83.26808767 3.63957283 86.36562163 3.65044022 89.46332932 C3.66679886 94.3632971 3.65833641 99.26302728 3.64559937 104.16299438 C3.61547577 117.21627532 3.61693704 130.26951364 3.63585222 143.32281172 C3.64818828 151.89874313 3.646317 160.47440555 3.61746442 169.05030596 C3.60223394 173.91944518 3.60970738 178.78785421 3.63417459 183.65694785 C3.6442553 186.6892613 3.63354332 189.72124083 3.61705971 192.75351524 C3.613612 194.15715422 3.61868859 195.56084463 3.63302803 196.9644146 C3.74728258 208.8882851 3.74728258 208.8882851 0.58676147 212.81948853 C-3.37308314 216.1574409 -5.40170388 216.13046682 -10.5401001 216.15390015 C-11.2195288 216.1582824 -11.8989575 216.16266465 -12.59897494 216.1671797 C-14.88662407 216.18058566 -17.17423465 216.18675058 -19.46191406 216.19287109 C-21.09777501 216.20077068 -22.73363422 216.20903954 -24.36949158 216.21765137 C-29.75151908 216.24388906 -35.13355443 216.25918115 -40.515625 216.2734375 C-42.36725622 216.27879654 -44.21888738 216.28417405 -46.07051849 216.28956985 C-53.77223155 216.31120151 -61.4739425 216.32993857 -69.17567825 216.34119225 C-80.21862036 216.35743325 -91.26121069 216.39061136 -102.30402017 216.44759309 C-110.06544892 216.48627898 -117.82678354 216.50582335 -125.58830619 216.51111281 C-130.22537425 216.51476826 -134.86206727 216.52680972 -139.49903107 216.55921555 C-143.86249425 216.58927235 -148.22535502 216.59561671 -152.58889961 216.58383179 C-154.18928586 216.58361085 -155.78969985 216.59193293 -157.38998985 216.60948563 C-159.57803931 216.63217616 -161.76390402 216.62388619 -163.95196533 216.60800171 C-165.17535236 216.61131186 -166.3987394 216.614622 -167.65919876 216.61803246 C-172.01466692 215.81229141 -173.94417939 214.15827186 -177 211 C-179.16288963 207.17358789 -179.25476642 203.79647967 -179.26742554 199.44754028 C-179.27195665 198.80300585 -179.27648776 198.15847141 -179.28115618 197.49440563 C-179.29377877 195.34271369 -179.29218124 193.19127556 -179.29052734 191.03955078 C-179.29651392 189.49353715 -179.30331977 187.9475265 -179.31088257 186.40151978 C-179.32853609 182.20724872 -179.33323766 178.01305929 -179.33451414 173.81875467 C-179.3359366 171.19696995 -179.34020798 168.57520593 -179.34550858 165.95342636 C-179.36400631 156.80308466 -179.37217946 147.65280119 -179.37060547 138.50244141 C-179.36940395 129.97897195 -179.39050889 121.45575567 -179.4220928 112.93235028 C-179.44826065 105.60904633 -179.45897256 98.28582504 -179.45769465 90.9624747 C-179.45718519 86.59097253 -179.46285955 82.21969542 -179.48405075 77.8482399 C-179.50344195 73.73592361 -179.5035518 69.6240469 -179.48901749 65.51171494 C-179.48692941 64.0052908 -179.49163033 62.49883908 -179.5037384 60.99246216 C-179.61242452 46.53033283 -179.61242452 46.53033283 -175 41 C-171.25576166 38.28146708 -168.71014382 37.63354434 -164.1131134 37.68875122 C-162.93429596 37.69500015 -161.75547852 37.70124908 -160.54093933 37.70768738 C-159.25617203 37.72954605 -157.97140472 37.75140472 -156.64770508 37.77392578 C-155.27406024 37.78619903 -153.90040116 37.79695824 -152.5267334 37.80632019 C-149.57248851 37.82845237 -146.6184836 37.85885771 -143.66437721 37.89496231 C-138.98595999 37.9496249 -134.30776934 37.97068698 -129.6290741 37.98434448 C-128.02482693 37.98941251 -126.42057984 37.99450341 -124.81633282 37.99961662 C-124.01301159 38.0021525 -123.20969037 38.00468837 -122.38202608 38.00730109 C-111.49461776 38.04422653 -100.60809362 38.10828367 -89.72143555 38.24316406 C-82.37111432 38.33396449 -75.02207709 38.37820799 -67.67117995 38.37017238 C-63.78511316 38.3678636 -59.9024368 38.38918539 -56.01709938 38.46799088 C-39.48081475 39.75558294 -39.48081475 39.75558294 -24.92515564 34.14364624 C-22.23994829 31.087543 -20.60016904 27.73591724 -19 24 C-17.5145874 21.90246582 -17.5145874 21.90246582 -16.15234375 20.2734375 C-15.42144531 19.31695313 -14.69054687 18.36046875 -13.9375 17.375 C-9.41717528 11.47825364 -4.74439767 5.71848898 0 0 Z " fill="#10477D" transform="translate(828,609)"/>
<path d="M0 0 C1.77206192 0.00015919 3.54412846 0.00585754 5.31616211 0.01586914 C6.24698105 0.01728409 7.17779999 0.01869904 8.13682556 0.02015686 C11.12241777 0.02577367 14.10793615 0.03832899 17.09350586 0.05102539 C19.11238499 0.05603823 21.13126529 0.06060151 23.15014648 0.06469727 C28.11046158 0.07574856 33.07072118 0.09302444 38.03100586 0.11352539 C36.71828019 2.78452123 35.34924179 5.22739325 33.63256836 7.66040039 C33.15940186 8.33216309 32.68623535 9.00392578 32.19873047 9.69604492 C31.68963135 10.41131348 31.18053223 11.12658203 30.65600586 11.86352539 C30.12434814 12.61359863 29.59269043 13.36367187 29.04492188 14.13647461 C24.45507549 20.58104326 19.72507044 26.91379173 14.95678711 33.22680664 C12.15702515 36.9361453 9.39906941 40.67463014 6.65600586 44.42602539 C1.92786876 50.89078428 -2.81632173 57.343467 -7.57055664 63.7890625 C-10.52260701 67.7917002 -13.47132512 71.79666034 -16.41040039 75.80883789 C-23.17987432 85.04055244 -30.04992979 94.18634071 -37.00756836 103.27709961 C-41.97278655 109.77560592 -46.84014027 116.33984848 -51.67114258 122.93847656 C-56.11380617 128.99132188 -60.65283691 134.96596045 -65.21899414 140.92602539 C-70.0506415 147.23566247 -74.802326 153.58042529 -79.38183594 160.07519531 C-83.96281586 166.55905863 -88.75666776 172.88228631 -93.53930664 179.21801758 C-95.70947971 182.09527572 -97.87044281 184.97941384 -100.03149414 187.86352539 C-102.34399414 190.94685872 -104.65649414 194.03019206 -106.96899414 197.11352539 C-110.416785 195.61346148 -112.79259947 193.60943277 -115.53149414 191.05102539 C-119.89353175 187.05196025 -124.38577291 183.28469173 -128.98461914 179.56274414 C-132.35660901 176.79541737 -135.66561735 173.96202124 -138.96899414 171.11352539 C-143.98060544 166.79520393 -149.05118404 162.56445359 -154.18774414 158.39477539 C-157.33283413 155.81509483 -160.4337234 153.18712865 -163.53149414 150.55102539 C-168.125201 146.64593745 -172.77378109 142.82661625 -177.50024414 139.08227539 C-180.22160516 136.9120761 -182.90797125 134.70228052 -185.59399414 132.48852539 C-189.9629536 128.90262267 -194.40552611 125.4478645 -198.96899414 122.11352539 C-199.2177832 122.67168945 -199.46657227 123.22985352 -199.72290039 123.80493164 C-201.18513812 126.51396769 -202.93743427 128.68316859 -204.90649414 131.05102539 C-206.11499023 132.50895508 -206.11499023 132.50895508 -207.34790039 133.99633789 C-209.54242003 136.61456418 -211.75639845 139.21588604 -213.97241211 141.81591797 C-218.65739083 147.31563934 -223.19781562 152.89776102 -227.63256836 158.60107422 C-231.90612511 164.07877817 -236.32848595 169.42743685 -240.76147461 174.77636719 C-244.54771905 179.35623264 -248.25694409 183.9866594 -251.90649414 188.67602539 C-255.18410433 192.88742766 -258.54953971 196.97013461 -262.10961914 200.94555664 C-264.57732861 203.82282294 -266.89260008 206.80908139 -269.21899414 209.80102539 C-273.37701236 215.14612661 -277.66178708 220.35561879 -282.05834961 225.50561523 C-284.70372622 228.60810084 -287.30416509 231.73659646 -289.84399414 234.92602539 C-290.46532227 235.70333008 -291.08665039 236.48063477 -291.72680664 237.28149414 C-292.99456544 238.88275743 -294.25877047 240.48689457 -295.51098633 242.1003418 C-297.23630236 244.32164903 -298.97705202 246.53024228 -300.71899414 248.73852539 C-301.55213135 249.82484253 -301.55213135 249.82484253 -302.40209961 250.93310547 C-302.93464355 251.60365967 -303.4671875 252.27421387 -304.01586914 252.96508789 C-304.48863281 253.57175293 -304.96139648 254.17841797 -305.44848633 254.8034668 C-306.96899414 256.11352539 -306.96899414 256.11352539 -310.96899414 256.11352539 C-312.96770548 254.52465382 -314.72418606 252.95985813 -316.53149414 251.17602539 C-317.6020891 250.1553554 -318.67505229 249.13716431 -319.75024414 248.12133789 C-320.28907227 247.61119141 -320.82790039 247.10104492 -321.38305664 246.57543945 C-323.68002173 244.45810156 -326.09475108 242.50462112 -328.53149414 240.55102539 C-332.29737603 237.51994972 -335.9122917 234.38770962 -339.46899414 231.11352539 C-343.97040872 226.97171026 -348.61704052 223.07282559 -353.37524414 219.23071289 C-356.98733645 216.28228814 -360.4883284 213.21520747 -363.96899414 210.11352539 C-367.10915872 211.49231227 -369.09333217 213.04787618 -371.40258789 215.57055664 C-372.04526611 216.26479736 -372.68794434 216.95903809 -373.35009766 217.67431641 C-374.0287085 218.41738037 -374.70731934 219.16044434 -375.40649414 219.92602539 C-380.51753596 225.44824005 -385.67201193 230.89417091 -391.03149414 236.17602539 C-394.89557648 239.99271695 -398.585458 243.88057628 -402.09790039 248.02368164 C-405.10429703 251.3815568 -408.34130662 254.50598252 -411.54711914 257.67211914 C-415.05026271 261.14865656 -418.3790946 264.72089617 -421.56665039 268.49243164 C-422.02942383 269.02739258 -422.49219727 269.56235352 -422.96899414 270.11352539 C-423.44208008 270.70004883 -423.91516602 271.28657227 -424.40258789 271.89086914 C-425.96899414 273.11352539 -425.96899414 273.11352539 -427.91821289 273.02368164 C-430.43929497 271.9048014 -431.87073649 270.53961431 -433.78149414 268.55102539 C-434.47629883 267.83172852 -435.17110352 267.11243164 -435.88696289 266.37133789 C-438.42713349 263.61670636 -440.86254187 260.78162323 -443.29711914 257.93383789 C-444.88465745 256.20534992 -446.5098103 254.75963825 -448.34399414 253.30102539 C-450.96899414 251.11352539 -450.96899414 251.11352539 -451.96899414 248.11352539 C-451.58791504 247.70739014 -451.20683594 247.30125488 -450.81420898 246.8828125 C-448.9906052 244.9390699 -447.16728891 242.99505785 -445.34399414 241.05102539 C-444.67045898 240.33309814 -443.99692383 239.6151709 -443.30297852 238.87548828 C-439.89595859 235.24220851 -436.49301918 231.60531856 -433.10180664 227.95727539 C-432.18455811 226.97126343 -432.18455811 226.97126343 -431.2487793 225.96533203 C-430.09891724 224.72855996 -428.95008083 223.49083316 -427.80249023 222.25195312 C-425.01341551 219.25329718 -422.18385483 216.31159624 -419.27758789 213.42602539 C-416.922436 211.08684394 -414.67158217 208.71633768 -412.53149414 206.17602539 C-409.56293858 202.72931324 -406.4282031 199.5224168 -403.15649414 196.36352539 C-401.25378098 194.406449 -399.4612641 192.40767232 -397.67211914 190.34790039 C-394.11877769 186.25720592 -390.44112083 182.30039956 -386.71899414 178.36352539 C-380.41103035 171.66530512 -374.16523894 164.91522446 -367.96899414 158.11352539 C-364.82039893 158.70361896 -363.03736326 159.6209149 -360.64868164 161.73852539 C-360.03597412 162.27574219 -359.4232666 162.81295898 -358.79199219 163.36645508 C-358.14915283 163.94298828 -357.50631348 164.51952148 -356.84399414 165.11352539 C-355.84203003 165.99766113 -355.84203003 165.99766113 -354.81982422 166.8996582 C-352.86275504 168.63015908 -350.91456245 170.37011419 -348.96899414 172.11352539 C-348.02668945 172.95399414 -347.08438477 173.79446289 -346.11352539 174.66040039 C-342.90200716 177.54004471 -339.70802386 180.43824584 -336.52368164 183.34790039 C-329.27965304 189.93338094 -321.84423385 196.28951091 -313.96899414 202.11352539 C-308.14935388 195.83220177 -302.5634715 189.46257027 -297.18383789 182.79711914 C-294.30418527 179.30801623 -291.26205539 175.98355618 -288.21508789 172.64086914 C-285.90711816 170.04390146 -283.71343551 167.37948526 -281.53149414 164.67602539 C-277.67074277 159.90212239 -273.59462339 155.37964112 -269.43774414 150.86352539 C-267.02521311 148.17614905 -264.73643204 145.42387095 -262.46899414 142.61352539 C-259.41550735 138.82892205 -256.26231113 135.19145002 -252.96899414 131.61352539 C-248.93266359 127.2232397 -245.12868885 122.70176919 -241.38305664 118.06274414 C-238.63037541 114.69984069 -235.80717645 111.4042297 -232.96899414 108.11352539 C-228.67687774 103.13340601 -224.47856835 98.09052803 -220.33618164 92.98461914 C-216.96638066 88.89748429 -213.50896015 84.88726916 -210.04125977 80.88305664 C-207.57662125 78.02892014 -205.17934098 75.17342731 -202.96899414 72.11352539 C-198.53783664 72.614575 -196.52526302 74.04929316 -193.34399414 77.11352539 C-189.91023462 80.32983033 -186.44705347 83.41359687 -182.78149414 86.36352539 C-178.25958475 90.02198673 -173.85120515 93.79045255 -169.46899414 97.61352539 C-165.18693122 101.34767707 -160.88567579 105.03811643 -156.46899414 108.61352539 C-150.14909813 113.73498186 -144.0395372 119.09158349 -137.9050293 124.43188477 C-134.72794249 127.19150317 -131.53753582 129.93548043 -128.34399414 132.67602539 C-127.77640381 133.16433838 -127.20881348 133.65265137 -126.62402344 134.15576172 C-125.07795854 135.48158813 -123.52370407 136.79784709 -121.96899414 138.11352539 C-121.07438477 138.90629883 -120.17977539 139.69907227 -119.25805664 140.51586914 C-118.50266602 141.0430957 -117.74727539 141.57032227 -116.96899414 142.11352539 C-113.13851581 140.83669928 -111.76612201 138.55498103 -109.46899414 135.42602539 C-108.5687441 134.2275137 -107.66767528 133.02961666 -106.76586914 131.83227539 C-106.30245117 131.21352539 -105.8390332 130.59477539 -105.36157227 129.95727539 C-103.18887709 127.08066355 -100.95463264 124.25381264 -98.71899414 121.42602539 C-94.44696065 116.00553814 -90.20265572 110.56402714 -85.96899414 105.11352539 C-79.54062114 96.83951134 -73.07629817 88.59448064 -66.59106445 80.36499023 C-61.33706241 73.69729765 -56.10697827 67.01398593 -50.94042969 60.27807617 C-45.58955033 53.3064428 -40.18286084 46.37815153 -34.78344727 39.4440918 C-32.42360216 36.41299904 -30.06522032 33.38076991 -27.70703125 30.34838867 C-26.55433403 28.86618747 -25.4015034 27.38409001 -24.24853516 25.90209961 C-21.167504 21.94170622 -18.08847983 17.97977058 -15.01196289 14.01586914 C-14.36678711 13.18506836 -13.72161133 12.35426758 -13.05688477 11.49829102 C-11.81153033 9.8945612 -10.56671866 8.29040973 -9.32250977 6.68579102 C-8.7662793 5.9697168 -8.21004883 5.25364258 -7.63696289 4.51586914 C-7.14478271 3.88156982 -6.65260254 3.24727051 -6.14550781 2.59375 C-4.17894621 0.11953066 -4.17894621 0.11953066 0 0 Z " fill="#CF3738" transform="translate(876.968994140625,156.886474609375)"/>
<path d="M0 0 C18.81 0 37.62 0 57 0 C57 79.2 57 158.4 57 240 C38.19 240 19.38 240 0 240 C0 160.8 0 81.6 0 0 Z " fill="#F7EFDD" transform="translate(843,305)"/>
<path d="M0 0 C35.31 0 70.62 0 107 0 C102.74382378 6.68827692 98.54620767 13.19447982 93.875 19.5625 C92.74214573 21.11976128 91.60933451 22.67705388 90.4765625 24.234375 C89.90325195 25.02005859 89.32994141 25.80574219 88.73925781 26.61523438 C85.9003857 30.50772494 83.07352407 34.40886659 80.25 38.3125 C79.44502075 39.42516235 79.44502075 39.42516235 78.6237793 40.56030273 C73.99200059 46.97873652 69.46745964 53.46619598 65 60 C61.97392528 58.65795167 60.01407243 57.21387869 57.79296875 54.76953125 C57.20580078 54.13080078 56.61863281 53.49207031 56.01367188 52.83398438 C55.41103516 52.16689453 54.80839844 51.49980469 54.1875 50.8125 C50.60008865 46.88082235 47.00976314 42.95452646 43.30078125 39.13671875 C42.76235596 38.58072998 42.22393066 38.02474121 41.66918945 37.4519043 C39.04219938 35.16688017 36.64773593 34.13249144 33.25 33.4375 C28.19581004 34.31226365 25.5714347 37.48842175 22 41 C21.25621094 41.66 20.51242187 42.32 19.74609375 43 C19.02550781 43.66 18.30492187 44.32 17.5625 45 C16.90378906 45.598125 16.24507812 46.19625 15.56640625 46.8125 C13.33009754 49.93552463 13.02060647 52.17543928 13 56 C14.57979723 59.13305629 14.57979723 59.13305629 17.125 62 C17.57439941 62.55051025 18.02379883 63.10102051 18.48681641 63.66821289 C19.96814349 65.46631918 21.47972047 67.23474426 23 69 C23.51498047 69.60440918 24.02996094 70.20881836 24.56054688 70.83154297 C27.25189747 73.9861452 29.96677869 77.11873713 32.703125 80.234375 C35.37322945 83.2747172 38.00699952 86.34358753 40.62744141 89.42675781 C51.25068288 104.01941693 51.25068288 104.01941693 65.1484375 113.46875 C66.25058594 113.48421875 66.25058594 113.48421875 67.375 113.5 C68.10460937 113.5309375 68.83421875 113.561875 69.5859375 113.59375 C76.74630665 111.83262361 80.6563953 104.5961487 84.5 98.875 C85.73624413 97.07151857 86.9745801 95.26946954 88.21484375 93.46875 C89.15626221 92.09976563 89.15626221 92.09976563 90.11669922 90.703125 C93.02038606 86.53542722 96.03383312 82.45236133 99.0625 78.375 C103.56700889 72.30288949 108.02803979 66.20398266 112.4375 60.0625 C117.31358998 53.28733319 122.25764072 46.56496353 127.25 39.875 C128.23504517 38.54867554 128.23504517 38.54867554 129.23999023 37.19555664 C129.84657471 36.38594482 130.45315918 35.57633301 131.078125 34.7421875 C131.61856445 34.0188623 132.15900391 33.29553711 132.71582031 32.55029297 C133.13959961 32.03869629 133.56337891 31.52709961 134 31 C134.33 31 134.66 31 135 31 C135 64 135 97 135 131 C90.45 131 45.9 131 0 131 C0 87.77 0 44.54 0 0 Z " fill="#F7EEDC" transform="translate(673,671)"/>
<path d="M0 0 C18.81 0 37.62 0 57 0 C57 58.74 57 117.48 57 178 C38.19 178 19.38 178 0 178 C0 119.26 0 60.52 0 0 Z " fill="#F7EFDD" transform="translate(653,367)"/>
<path d="M0 0 C9.33508572 1.26239593 17.14632576 9.83203096 24.125 15.75 C24.78870605 16.30461914 25.45241211 16.85923828 26.13623047 17.43066406 C27.06266357 18.23068848 27.06266357 18.23068848 28.0078125 19.046875 C28.56098145 19.51963867 29.11415039 19.99240234 29.68408203 20.47949219 C31.30307098 22.35019036 31.79713785 23.53346798 32 26 C31.1105957 27.77661133 31.1105957 27.77661133 29.67578125 29.58203125 C28.88361206 30.59765137 28.88361206 30.59765137 28.07543945 31.63378906 C27.49366943 32.35276367 26.91189941 33.07173828 26.3125 33.8125 C25.42534302 34.93930176 25.42534302 34.93930176 24.52026367 36.08886719 C22.69302996 38.40315227 20.84855385 40.70272461 19 43 C17.93698627 44.33162131 16.87445817 45.66363049 15.8125 46.99609375 C13.82383303 49.48698177 11.82930578 51.97304257 9.83203125 54.45703125 C3.94477727 61.79866607 -1.73564907 69.2964146 -7.35888672 76.84130859 C-11.76480692 82.75134326 -16.23322096 88.58550981 -20.875 94.3125 C-31.95106953 108.01247166 -42.08897416 122.45484009 -52.37792969 136.74853516 C-54.03339288 139.04634996 -55.69196457 141.34188876 -57.3515625 143.63671875 C-57.90440918 144.40145508 -58.45725586 145.16619141 -59.02685547 145.95410156 C-60.12401982 147.47096919 -61.22198699 148.98725649 -62.32080078 150.50292969 C-64.85448907 154.00326758 -67.36788252 157.51397572 -69.828125 161.06640625 C-70.27067627 161.70094727 -70.71322754 162.33548828 -71.16918945 162.98925781 C-72.34702422 164.6824378 -73.51569762 166.38198071 -74.68359375 168.08203125 C-77.63799013 171.8036739 -80.61885583 175.23083315 -85.2734375 176.734375 C-89.66462559 176.76702324 -92.40279313 176.15510386 -95.8125 173.3125 C-97.23923226 171.90566241 -98.63079586 170.46288652 -100 169 C-100.6791748 168.29206299 -100.6791748 168.29206299 -101.37207031 167.56982422 C-107.51847842 161.16173735 -113.30431519 154.52781465 -118.86328125 147.6015625 C-120.95882494 145.05013271 -123.13963155 142.61673227 -125.375 140.1875 C-142.91723262 120.94363988 -142.91723262 120.94363988 -143.08984375 114.8046875 C-141.56775495 109.4910155 -138.5294816 106.8319117 -134.5625 103.125 C-133.86833984 102.44953125 -133.17417969 101.7740625 -132.45898438 101.078125 C-126.30938704 95.14879398 -126.30938704 95.14879398 -122.25 94.6875 C-115.12301414 95.3727871 -110.27579277 101.4450506 -105.5 106.3125 C-104.86191406 106.95123047 -104.22382812 107.58996094 -103.56640625 108.24804688 C-99.94033201 111.9074899 -96.50968411 115.65597162 -93.24414062 119.64135742 C-92.02293603 121.13753885 -92.02293603 121.13753885 -90 122 C-89.76925781 121.48695313 -89.53851562 120.97390625 -89.30078125 120.4453125 C-87.51248441 117.08352924 -85.35406032 113.99939198 -83.1875 110.875 C-82.70394043 110.17487793 -82.22038086 109.47475586 -81.72216797 108.75341797 C-76.47288112 101.1867426 -71.0715157 93.73124562 -65.65722656 86.28222656 C-63.47243829 83.27347571 -61.29560314 80.25902539 -59.11962891 77.24389648 C-58.04186697 75.75072344 -56.96341877 74.2580455 -55.88427734 72.76586914 C-53.11509899 68.9362166 -50.35501252 65.10047822 -47.609375 61.25390625 C-42.32573484 53.86597904 -37.00369744 46.59942395 -31.171875 39.62890625 C-28.73425774 36.67833716 -26.38877494 33.66335408 -24.0625 30.625 C-23.64661621 30.08206299 -23.23073242 29.53912598 -22.80224609 28.97973633 C-21.533492 27.32084157 -20.26643056 25.66066913 -19 24 C-12.80588067 15.87765752 -6.5234797 7.86284148 0 0 Z " fill="#CF3637" transform="translate(828,609)"/>
<path d="M0 0 C18.81 0 37.62 0 57 0 C57 45.54 57 91.08 57 138 C38.19 138 19.38 138 0 138 C0 92.46 0 46.92 0 0 Z " fill="#F7EFDD" transform="translate(748,407)"/>
<path d="M0 0 C12.21 0 24.42 0 37 0 C37 63.36 37 126.72 37 192 C24.79 192 12.58 192 0 192 C0 128.64 0 65.28 0 0 Z " fill="#CF3739" transform="translate(566,629)"/>
<path d="M0 0 C18.81 0 37.62 0 57 0 C57 30.69 57 61.38 57 93 C38.19 93 19.38 93 0 93 C0 62.31 0 31.62 0 0 Z " fill="#F6EEDD" transform="translate(558,452)"/>
<path d="M0 0 C12.21 0 24.42 0 37 0 C37 40.92 37 81.84 37 124 C24.79 124 12.58 124 0 124 C0 83.08 0 42.16 0 0 Z " fill="#CE3536" transform="translate(506,697)"/>
<path d="M0 0 C18.48 0 36.96 0 56 0 C56 17.82 56 35.64 56 54 C37.52 54 19.04 54 0 54 C0 36.18 0 18.36 0 0 Z " fill="#F7EFDE" transform="translate(464,491)"/>
<path d="M0 0 C12.21 0 24.42 0 37 0 C37 0.33 37 0.66 37 1 C25.12 1 13.24 1 1 1 C1 63.37 1 125.74 1 190 C12.22 190 23.44 190 35 190 C35 127.96 35 65.92 35 2 C35.33 2 35.66 2 36 2 C36.33 64.7 36.66 127.4 37 192 C24.79 192 12.58 192 0 192 C0 128.64 0 65.28 0 0 Z " fill="#C61415" transform="translate(566,629)"/>
<path d="M0 0 C0.33 0 0.66 0 1 0 C1 33 1 66 1 100 C-33.47815953 100 -33.47815953 100 -46.3671875 99.78125 C-47.80404341 99.75862458 -49.24090267 99.73621037 -50.67776489 99.71398926 C-54.33688846 99.65686808 -57.99596153 99.59701521 -61.6550293 99.53643799 C-65.43796023 99.474346 -69.22093511 99.41505137 -73.00390625 99.35546875 C-80.33598124 99.23960091 -87.66800484 99.12082558 -95 99 C-95 98.67 -95 98.34 -95 98 C-63.98 98 -32.96 98 -1 98 C-1.32892399 67.85778615 -1.32892399 67.85778615 -1.65820312 37.71557617 C-1.72167969 31.88928223 -1.72167969 31.88928223 -1.75134277 29.16279602 C-1.7721161 27.25626053 -1.79295407 25.34972575 -1.81384277 23.44319153 C-1.84544781 20.55742554 -1.87684851 17.67165739 -1.90820312 14.78588867 C-1.92225567 13.50924614 -1.92225567 13.50924614 -1.9365921 12.20681286 C-2.035557 3.05333549 -2.035557 3.05333549 0 0 Z " fill="#FCF8E7" transform="translate(807,702)"/>
<path d="M0 0 C0.66 0 1.32 0 2 0 C2 41.91 2 83.82 2 127 C11.9 127 21.8 127 32 127 C32 127.33 32 127.66 32 128 C21.26947052 128.96609269 10.83391721 129 0 129 C0 86.43 0 43.86 0 0 Z " fill="#FBF9E7" transform="translate(673,673)"/>
<path d="M0 0 C0.83111298 0.24114784 0.83111298 0.24114784 1.67901611 0.48716736 C4.22047154 1.04871426 6.53352847 1.1602344 9.13574219 1.20532227 C10.15649841 1.22526749 11.17725464 1.24521271 12.22894287 1.26576233 C13.32386047 1.28247482 14.41877808 1.29918732 15.546875 1.31640625 C16.6732135 1.33718735 17.799552 1.35796844 18.96002197 1.37937927 C22.55661949 1.44474333 26.15328977 1.50369885 29.75 1.5625 C32.1888096 1.6056977 34.62761184 1.6493124 37.06640625 1.69335938 C43.04419735 1.80119563 49.02204399 1.9003674 55 2 C55 10.58 55 19.16 55 28 C38.83 28 22.66 28 6 28 C6 27.34 6 26.68 6 26 C21.51 26 37.02 26 53 26 C53 18.41 53 10.82 53 3 C47.63814453 3.05220703 47.63814453 3.05220703 42.16796875 3.10546875 C38.71281737 3.12885289 35.25767475 3.14707603 31.80249023 3.16479492 C29.39782782 3.17989816 26.99319302 3.20038208 24.58862305 3.22631836 C21.13583569 3.26263351 17.68341196 3.279711 14.23046875 3.29296875 C12.61316109 3.31619453 12.61316109 3.31619453 10.96318054 3.33988953 C9.96236954 3.34011612 8.96155853 3.34034271 7.93041992 3.34057617 C7.04883713 3.34723801 6.16725433 3.35389984 5.25895691 3.36076355 C2.55853368 2.92949624 1.68834041 2.09470587 0 0 Z " fill="#EAEBE1" transform="translate(284,347)"/>
<path d="M0 0 C0.33 0 0.66 0 1 0 C1 11.22 1 22.44 1 34 C12.22 34 23.44 34 35 34 C35.33 34.66 35.66 35.32 36 36 C23.79 36 11.58 36 -1 36 C-0.67 24.12 -0.34 12.24 0 0 Z " fill="#CB2325" transform="translate(507,785)"/>
<path d="M0 0 C8.91 0 17.82 0 27 0 C26.67 0.99 26.34 1.98 26 3 C22.04180389 3.08678303 18.08385066 3.14031733 14.125 3.1875 C12.43310547 3.22520508 12.43310547 3.22520508 10.70703125 3.26367188 C9.09248047 3.27817383 9.09248047 3.27817383 7.4453125 3.29296875 C5.95281982 3.31653442 5.95281982 3.31653442 4.43017578 3.34057617 C3.62821777 3.22818604 2.82625977 3.1157959 2 3 C1.34 2.01 0.68 1.02 0 0 Z " fill="#195183" transform="translate(232,598)"/>
<path d="M0 0 C0 0.99 0 1.98 0 3 C-5.28 3 -10.56 3 -16 3 C-16.66 4.32 -17.32 5.64 -18 7 C-18.66 6.01 -19.32 5.02 -20 4 C-13.57376154 -0.78231699 -7.81498429 -0.42306682 0 0 Z " fill="#E5E7DC" transform="translate(386,427)"/>
<path d="M0 0 C3.56917061 1.5414201 6.08217769 3.69475459 8.9375 6.3125 C10.24654297 7.51132813 10.24654297 7.51132813 11.58203125 8.734375 C14.11347266 11.10632333 16.58785101 13.50744604 19 16 C17.51515588 15.60404157 16.0371169 15.18249294 14.5625 14.75 C13.32693359 14.40195313 13.32693359 14.40195313 12.06640625 14.046875 C11.38449219 13.70140625 10.70257812 13.3559375 10 13 C9.64724896 11.67167188 9.31588477 10.33757456 9 9 C6.93049411 7.07571486 6.93049411 7.07571486 4.4375 5.375 C2.92543716 4.29461813 1.43687948 3.17853145 0 2 C0 1.34 0 0.68 0 0 Z " fill="#E1352D" transform="translate(689,240)"/>
<path d="M0 0 C0 6 0 6 -2 8.1875 C-2.99 9.0846875 -2.99 9.0846875 -4 10 C-3.67 10.99 -3.34 11.98 -3 13 C-3.598125 12.835 -4.19625 12.67 -4.8125 12.5 C-7.11344336 11.8885876 -7.11344336 11.8885876 -10 12 C-8.52149287 10.18696196 -7.04217625 8.37458402 -5.5625 6.5625 C-4.32693359 5.04849609 -4.32693359 5.04849609 -3.06640625 3.50390625 C-1 1 -1 1 0 0 Z " fill="#DE3630" transform="translate(818,228)"/>
<path d="M0 0 C0 0.99 0 1.98 0 3 C-0.474375 3.45375 -0.94875 3.9075 -1.4375 4.375 C-3.25284988 5.92798707 -3.25284988 5.92798707 -3.25 8.5 C-3.4975 9.325 -3.745 10.15 -4 11 C-7.5625 12.8125 -7.5625 12.8125 -11 14 C-9.42219077 10.28954753 -7.09296752 7.70093616 -4.375 4.75 C-3.55773437 3.85796875 -2.74046875 2.9659375 -1.8984375 2.046875 C-1.27195312 1.37140625 -0.64546875 0.6959375 0 0 Z " fill="#E0352E" transform="translate(599,318)"/>
<path d="M0 0 C3.45201639 1.47721422 5.64961936 3.43794001 8.25 6.125 C8.95640625 6.84945313 9.6628125 7.57390625 10.390625 8.3203125 C11.18726563 9.15175781 11.18726563 9.15175781 12 10 C11.01 11.485 11.01 11.485 10 13 C7 9.25 7 9.25 7 7 C6.401875 6.731875 5.80375 6.46375 5.1875 6.1875 C3.00152146 5.00082594 1.58667406 3.90400887 0 2 C0 1.34 0 0.68 0 0 Z " fill="#234B80" transform="translate(427,409)"/>
<path d="M0 0 C3.89271432 2.167295 7.03709814 4.67413029 10.3125 7.6875 C11.19550781 8.49574219 12.07851563 9.30398438 12.98828125 10.13671875 C13.65214844 10.75160156 14.31601562 11.36648438 15 12 C10.97943199 12 8.17617582 10.31711089 5 8 C3.75 5.875 3.75 5.875 3 4 C2.01 3.34 1.02 2.68 0 2 C0 1.34 0 0.68 0 0 Z " fill="#0E4F8B" transform="translate(522,375)"/>
<path d="M0 0 C0 3.60573896 -0.81707462 4.41336566 -3 7.1875 C-3.556875 7.90292969 -4.11375 8.61835938 -4.6875 9.35546875 C-5.120625 9.89816406 -5.55375 10.44085938 -6 11 C-7.37562854 9.71034824 -8.70766393 8.37310707 -10 7 C-10 6.34 -10 5.68 -10 5 C-8.63875 5.1546875 -8.63875 5.1546875 -7.25 5.3125 C-3.80271869 5.33951208 -3.80271869 5.33951208 -1.625 2.5 C-1.08875 1.675 -0.5525 0.85 0 0 Z " fill="#DD3731" transform="translate(781,336)"/>
<path d="M0 0 C0.33 1.32 0.66 2.64 1 4 C-0.0828125 4.556875 -0.0828125 4.556875 -1.1875 5.125 C-4.57954762 7.38636508 -6.50498266 9.79212057 -9 13 C-9 9.26130751 -8.09514308 8.63449295 -5.625 5.9375 C-4.99851562 5.24527344 -4.37203125 4.55304688 -3.7265625 3.83984375 C-2.50602933 2.53923035 -1.26120903 1.26120903 0 0 Z " fill="#DB3831" transform="translate(624,289)"/>
<path d="M0 0 C2.99220268 1.36370299 5.29026529 2.94908083 7.75 5.125 C8.67039062 5.93324219 8.67039062 5.93324219 9.609375 6.7578125 C10.06828125 7.16773438 10.5271875 7.57765625 11 8 C8.3493418 8 6.52697187 7.63174297 4 7 C3.01 7 2.02 7 1 7 C1 6.01 1 5.02 1 4 C0.6937566 2.66018514 0.36548445 1.32488113 0 0 Z " fill="#0A4E89" transform="translate(511,366)"/>
<path d="M0 0 C0 3.51716303 -0.82445585 4.37121748 -3 7 C-2.34 7.33 -1.68 7.66 -1 8 C-1.66 8 -2.32 8 -3 8 C-3.66 9.32 -4.32 10.64 -5 12 C-5.33 11.34 -5.66 10.68 -6 10 C-6.99 10 -7.98 10 -9 10 C-6.03 6.7 -3.06 3.4 0 0 Z " fill="#DC3530" transform="translate(672,232)"/>
<path d="M0 0 C2.99220268 1.36370299 5.29026529 2.94908083 7.75 5.125 C8.67039062 5.93324219 8.67039062 5.93324219 9.609375 6.7578125 C10.06828125 7.16773438 10.5271875 7.57765625 11 8 C6.99113032 8 5.28126636 6.20983245 2 4 C-0.22602615 3.23060319 -0.22602615 3.23060319 -2 3 C-1.34 2.01 -0.68 1.02 0 0 Z " fill="#0D4F8B" transform="translate(678,279)"/>
<path d="M0 0 C1.32 0 2.64 0 4 0 C4 4.38968456 1.87194899 5.76905739 -1 9 C-1 8.01 -1 7.02 -1 6 C-1.20625 5.319375 -1.4125 4.63875 -1.625 3.9375 C-1.74875 3.298125 -1.8725 2.65875 -2 2 C-1.34 1.34 -0.68 0.68 0 0 Z " fill="#DB3732" transform="translate(636,324)"/>
<path d="M0 0 C0.99 0.33 1.98 0.66 3 1 C0.80528594 5.51135667 -1.41173718 7.06273348 -6 9 C-4.47291037 5.56404834 -2.40072955 2.88087546 0 0 Z " fill="#DC3730" transform="translate(828,215)"/>
<path d="M0 0 C0.33 0.66 0.66 1.32 1 2 C2.32 1.34 3.64 0.68 5 0 C3.6062718 4.43458973 1.39417765 6.87378374 -2 10 C-1.34 6.7 -0.68 3.4 0 0 Z " fill="#DE3730" transform="translate(832,262)"/>
<path d="M0 0 C2.29013653 3.4352048 2.17842973 4.985331 2 9 C1.34 9 0.68 9 0 9 C-1.36623674 6.26752652 -1.128426 4.01801098 -1 1 C-0.67 0.67 -0.34 0.34 0 0 Z " fill="#103E79" transform="translate(154,497)"/>
<path d="M0 0 C0 2.62113708 -0.31292445 4.50935112 -1 7 C-2.65 7.33 -4.3 7.66 -6 8 C-4.02 5.36 -2.04 2.72 0 0 Z " fill="#E1352F" transform="translate(849,188)"/>
<path d="M0 0 C0.66 0.33 1.32 0.66 2 1 C0.52307692 5.67692308 0.52307692 5.67692308 -2.125 7.3125 C-3.053125 7.6528125 -3.053125 7.6528125 -4 8 C-3.40138258 5.64828869 -2.73075648 3.3140622 -2 1 C-1.34 0.67 -0.68 0.34 0 0 Z " fill="#EBE9DE" transform="translate(131,818)"/>
<path d="M0 0 C0.33 0.66 0.66 1.32 1 2 C-0.65 3.65 -2.3 5.3 -4 7 C-4 5.35 -4 3.7 -4 2 C-2.68 1.34 -1.36 0.68 0 0 Z " fill="#DA3631" transform="translate(824,678)"/>
<path d="M0 0 C3.7952131 1.49097658 5.61042731 3.75700849 8 7 C4.88801935 5.50163895 1.9465385 3.80066242 -1 2 C-0.67 1.34 -0.34 0.68 0 0 Z " fill="#DE352F" transform="translate(530,332)"/>
<path d="M0 0 C0.66 0 1.32 0 2 0 C0.55746343 3.36591866 -1.33264727 5.51047079 -4 8 C-3.67 6.35 -3.34 4.7 -3 3 C-2.34 3 -1.68 3 -1 3 C-0.67 2.01 -0.34 1.02 0 0 Z " fill="#E1362D" transform="translate(913,157)"/>
<path d="M0 0 C3.3 0.33 6.6 0.66 10 1 C8.35 2.32 6.7 3.64 5 5 C4.67 4.01 4.34 3.02 4 2 C2.68 1.34 1.36 0.68 0 0 Z " fill="#225485" transform="translate(252,575)"/>
<path d="M0 0 C1.98 0.495 1.98 0.495 4 1 C2.75023244 4.65316671 2.32901247 5.78065836 -1 8 C-0.67 5.36 -0.34 2.72 0 0 Z " fill="#E03831" transform="translate(857,229)"/>
</svg>
